<svg width="168" height="48" viewBox="0 0 168 48" fill="none" xmlns="http://www.w3.org/2000/svg">
<path d="M13.4832 10.5468H23.6105C26.5918 10.5468 28.9139 11.143 30.5319 12.3385C32.1678 13.534 32.9888 15.2479 32.9888 17.4921C32.9888 18.7745 32.6955 19.8861 32.1079 20.8179C31.5206 21.7618 30.6547 22.5078 29.5041 23.0621C31.0922 23.5895 32.3086 24.4254 33.1596 25.57C34.0045 26.7146 34.424 28.1048 34.424 29.7348C34.424 31.3438 34.0135 32.7281 33.1955 33.8696C32.3776 35.0262 31.209 35.9191 29.6899 36.5483C28.1738 37.1775 26.3641 37.4921 24.2367 37.4921H13.4802L13.4832 10.5468ZM0 48H47.9401V0.0598755H0V48ZM23.1011 15.0412C26.0105 15.0412 27.4757 16.1108 27.4757 18.2472C27.4757 19.3528 27.1041 20.2157 26.3581 20.8299C25.612 21.4472 24.5304 21.7528 23.1221 21.7528H18.9873V15.0412H23.1011ZM23.7963 25.9775H18.9423V33.2584H23.7064C25.3423 33.2584 26.6038 32.9498 27.4817 32.3356C28.3626 31.7183 28.803 30.8344 28.803 29.6779C28.803 27.215 27.1281 25.9925 23.7693 25.9925L23.7963 25.9775Z" fill="black"/>
<path d="M73.4082 10.5468H83.5356C86.5168 10.5468 88.8389 11.143 90.4569 12.3385C92.0929 13.534 92.9138 15.2479 92.9138 17.4921C92.9138 18.7745 92.6205 19.8861 92.0329 20.8179C91.4457 21.7618 90.5768 22.5078 89.4292 23.0621C91.0172 23.5895 92.2337 24.4254 93.0846 25.57C93.9296 26.7146 94.3491 28.1048 94.3491 29.7348C94.3491 31.3438 93.9386 32.7281 93.1206 33.8696C92.3026 35.0262 91.1341 35.9191 89.615 36.5483C88.0989 37.1775 86.2891 37.4921 84.1618 37.4921H73.4052L73.4082 10.5468ZM59.925 48H107.865V0.0598755H59.925V48ZM83.0262 15.0412C85.9356 15.0412 87.4007 16.1108 87.4007 18.2472C87.4007 19.3528 87.0292 20.2157 86.2831 20.8299C85.5371 21.4472 84.4554 21.7528 83.0472 21.7528H78.9123V15.0412H83.0262ZM83.7213 25.9775H78.8674V33.2584H83.6314C85.2674 33.2584 86.5288 32.9498 87.4067 32.3356C88.2876 31.7183 88.7281 30.8344 88.7281 29.6779C88.7281 27.215 87.0532 25.9925 83.6944 25.9925L83.7213 25.9775Z" fill="black"/>
<path d="M150.412 37.2135C151.883 36.857 153.178 36.3686 154.307 35.7543V30.6307C151.949 32.0839 149.363 32.812 146.577 32.812C144.749 32.812 143.191 32.4674 141.903 31.7783C140.62 31.0892 139.644 30.0854 138.972 28.7521C138.298 27.4337 137.963 25.8367 137.963 23.9581C137.963 22.0854 138.31 20.4824 139.008 19.194C139.707 17.8877 140.707 16.8899 142.005 16.2008C143.311 15.5116 144.89 15.1671 146.739 15.1671C148.084 15.1671 149.366 15.3462 150.574 15.7034C151.79 16.0599 152.92 16.5843 153.96 17.2734V12.03C152.818 11.4397 151.581 10.9903 150.244 10.6817C148.911 10.373 147.497 10.2202 145.99 10.2202C143.832 10.2202 141.885 10.5408 140.147 11.182C138.409 11.8232 136.911 12.7461 135.683 13.9536C134.439 15.1611 133.486 16.6083 132.827 18.2981C132.168 19.985 131.838 21.8637 131.838 23.9611C131.838 26.1064 132.156 28.036 132.791 29.7438C133.426 31.4577 134.337 32.8899 135.533 34.0884C136.725 35.2719 138.184 36.1768 139.907 36.806C141.633 37.4352 143.563 37.7498 145.72 37.7498C147.344 37.7498 148.896 37.5707 150.364 37.2135H150.412ZM167.79 47.9401H119.85V0H167.79V47.9401Z" fill="black"/>
</svg>
