<svg width="604" height="307" viewBox="0 0 604 307" fill="none" xmlns="http://www.w3.org/2000/svg">
<path d="M40 42.5111L144.696 29.7535L192 0L306.087 11.0899L289.391 42.5111L353.391 51.7527L395.13 11.0899L489.739 42.5111L604 29.7535L559.603 297.758H395.13L328.348 253.219L289.391 307L208.696 297.758L222.609 264.489L144.696 253.219L122.435 280.943L0 253.219L40 42.5111Z" fill="#FBC138"/>
<path d="M87.8113 206.727C87.6451 205.324 86.9711 204.234 85.7893 203.459C84.6074 202.683 83.1579 202.295 81.4405 202.295C80.1849 202.295 79.0861 202.499 78.1444 202.905C77.2118 203.311 76.4824 203.87 75.9562 204.581C75.4391 205.292 75.1806 206.099 75.1806 207.004C75.1806 207.761 75.3606 208.412 75.7207 208.957C76.09 209.493 76.5609 209.94 77.1334 210.3C77.7058 210.651 78.3059 210.942 78.9338 211.173C79.5616 211.395 80.1387 211.575 80.665 211.713L83.5456 212.489C84.2843 212.683 85.106 212.95 86.0108 213.292C86.9249 213.634 87.7974 214.1 88.6284 214.691C89.4686 215.272 90.1611 216.02 90.7058 216.934C91.2505 217.848 91.5229 218.97 91.5229 220.3C91.5229 221.832 91.1213 223.217 90.318 224.455C89.524 225.692 88.3606 226.675 86.828 227.404C85.3045 228.134 83.4533 228.499 81.2743 228.499C79.2431 228.499 77.4842 228.171 75.9977 227.515C74.5204 226.86 73.3571 225.946 72.5077 224.773C71.6675 223.6 71.192 222.239 71.0812 220.688H74.6266C74.7189 221.759 75.079 222.645 75.7069 223.347C76.3439 224.039 77.1472 224.556 78.1167 224.898C79.0954 225.23 80.1479 225.396 81.2743 225.396C82.5854 225.396 83.7626 225.184 84.8059 224.759C85.8493 224.325 86.6756 223.725 87.285 222.959C87.8944 222.183 88.1991 221.278 88.1991 220.244C88.1991 219.303 87.9359 218.536 87.4096 217.945C86.8834 217.354 86.1909 216.874 85.3322 216.505C84.4736 216.136 83.5456 215.812 82.5485 215.536L79.0584 214.538C76.8425 213.901 75.0883 212.992 73.7956 211.81C72.503 210.628 71.8567 209.082 71.8567 207.17C71.8567 205.582 72.2861 204.197 73.1447 203.016C74.0126 201.825 75.176 200.901 76.6348 200.246C78.1028 199.581 79.7417 199.249 81.5513 199.249C83.3795 199.249 85.0045 199.576 86.4263 200.232C87.8482 200.878 88.9746 201.765 89.8056 202.891C90.6458 204.017 91.089 205.296 91.1351 206.727H87.8113ZM146.709 202.683V199.636H167.982V202.683H159.063V228H155.628V202.683H146.709ZM242.986 199.636H246.421V218.416C246.421 220.355 245.964 222.086 245.05 223.61C244.145 225.124 242.866 226.32 241.213 227.197C239.561 228.065 237.622 228.499 235.397 228.499C233.171 228.499 231.233 228.065 229.58 227.197C227.927 226.32 226.644 225.124 225.73 223.61C224.825 222.086 224.372 220.355 224.372 218.416V199.636H227.807V218.139C227.807 219.524 228.112 220.757 228.721 221.837C229.331 222.908 230.198 223.753 231.325 224.371C232.461 224.981 233.818 225.286 235.397 225.286C236.975 225.286 238.333 224.981 239.468 224.371C240.604 223.753 241.472 222.908 242.072 221.837C242.681 220.757 242.986 219.524 242.986 218.139V199.636ZM313.123 228H304.37V199.636H313.51C316.262 199.636 318.616 200.204 320.574 201.34C322.531 202.466 324.031 204.087 325.075 206.201C326.118 208.306 326.64 210.827 326.64 213.763C326.64 216.717 326.113 219.261 325.061 221.394C324.008 223.517 322.476 225.152 320.463 226.297C318.45 227.432 316.003 228 313.123 228ZM307.804 224.953H312.901C315.246 224.953 317.19 224.501 318.732 223.596C320.273 222.691 321.423 221.403 322.18 219.732C322.937 218.061 323.316 216.071 323.316 213.763C323.316 211.473 322.942 209.502 322.194 207.849C321.446 206.187 320.329 204.913 318.842 204.027C317.356 203.131 315.505 202.683 313.289 202.683H307.804V224.953ZM386.926 199.636V228H383.491V199.636H386.926ZM468.834 213.818C468.834 216.81 468.294 219.395 467.214 221.574C466.133 223.753 464.652 225.433 462.768 226.615C460.884 227.797 458.733 228.388 456.314 228.388C453.895 228.388 451.744 227.797 449.86 226.615C447.977 225.433 446.495 223.753 445.415 221.574C444.334 219.395 443.794 216.81 443.794 213.818C443.794 210.827 444.334 208.241 445.415 206.062C446.495 203.884 447.977 202.203 449.86 201.021C451.744 199.839 453.895 199.249 456.314 199.249C458.733 199.249 460.884 199.839 462.768 201.021C464.652 202.203 466.133 203.884 467.214 206.062C468.294 208.241 468.834 210.827 468.834 213.818ZM465.51 213.818C465.51 211.362 465.099 209.289 464.278 207.6C463.465 205.91 462.362 204.631 460.968 203.763C459.583 202.896 458.032 202.462 456.314 202.462C454.597 202.462 453.041 202.896 451.647 203.763C450.262 204.631 449.159 205.91 448.337 207.6C447.524 209.289 447.118 211.362 447.118 213.818C447.118 216.274 447.524 218.347 448.337 220.037C449.159 221.726 450.262 223.005 451.647 223.873C453.041 224.741 454.597 225.175 456.314 225.175C458.032 225.175 459.583 224.741 460.968 223.873C462.362 223.005 463.465 221.726 464.278 220.037C465.099 218.347 465.51 216.274 465.51 213.818ZM541.211 206.727C541.044 205.324 540.37 204.234 539.189 203.459C538.007 202.683 536.557 202.295 534.84 202.295C533.584 202.295 532.486 202.499 531.544 202.905C530.611 203.311 529.882 203.87 529.356 204.581C528.839 205.292 528.58 206.099 528.58 207.004C528.58 207.761 528.76 208.412 529.12 208.957C529.489 209.493 529.96 209.94 530.533 210.3C531.105 210.651 531.705 210.942 532.333 211.173C532.961 211.395 533.538 211.575 534.064 211.713L536.945 212.489C537.684 212.683 538.505 212.95 539.41 213.292C540.324 213.634 541.197 214.1 542.028 214.691C542.868 215.272 543.56 216.02 544.105 216.934C544.65 217.848 544.922 218.97 544.922 220.3C544.922 221.832 544.521 223.217 543.717 224.455C542.923 225.692 541.76 226.675 540.227 227.404C538.704 228.134 536.853 228.499 534.674 228.499C532.642 228.499 530.884 228.171 529.397 227.515C527.92 226.86 526.756 225.946 525.907 224.773C525.067 223.6 524.591 222.239 524.481 220.688H528.026C528.118 221.759 528.478 222.645 529.106 223.347C529.743 224.039 530.547 224.556 531.516 224.898C532.495 225.23 533.547 225.396 534.674 225.396C535.985 225.396 537.162 225.184 538.205 224.759C539.249 224.325 540.075 223.725 540.684 222.959C541.294 222.183 541.598 221.278 541.598 220.244C541.598 219.303 541.335 218.536 540.809 217.945C540.283 217.354 539.59 216.874 538.732 216.505C537.873 216.136 536.945 215.812 535.948 215.536L532.458 214.538C530.242 213.901 528.488 212.992 527.195 211.81C525.902 210.628 525.256 209.082 525.256 207.17C525.256 205.582 525.685 204.197 526.544 203.016C527.412 201.825 528.575 200.901 530.034 200.246C531.502 199.581 533.141 199.249 534.951 199.249C536.779 199.249 538.404 199.576 539.826 200.232C541.248 200.878 542.374 201.765 543.205 202.891C544.045 204.017 544.488 205.296 544.535 206.727H541.211Z" fill="#3B3752"/>
<path d="M63 157V77L103 137V77H143V157L103 97V157H63Z" fill="#3B3752"/>
<path d="M193.965 157.791C186.507 157.791 179.652 156.058 173.399 152.593C167.222 149.128 162.287 144.306 158.596 138.129C154.98 131.876 153.172 124.87 153.172 117.111C153.172 109.352 154.98 102.383 158.596 96.206C162.287 90.0287 167.222 85.2073 173.399 81.742C179.652 78.2767 186.507 76.544 193.965 76.544C201.423 76.544 208.241 78.2767 214.418 81.742C220.671 85.2073 225.567 90.0287 229.108 96.206C232.724 102.383 234.532 109.352 234.532 117.111C234.532 124.87 232.724 131.876 229.108 138.129C225.492 144.306 220.595 149.128 214.418 152.593C208.241 156.058 201.423 157.791 193.965 157.791ZM193.965 140.163C200.293 140.163 205.34 138.054 209.107 133.835C212.949 129.616 214.87 124.042 214.87 117.111C214.87 110.105 212.949 104.53 209.107 100.387C205.34 96.1683 200.293 94.059 193.965 94.059C187.562 94.059 182.439 96.1307 178.597 100.274C174.83 104.417 172.947 110.03 172.947 117.111C172.947 124.117 174.83 129.729 178.597 133.948C182.439 138.091 187.562 140.163 193.965 140.163ZM285.736 157L269.238 127.055H264.605V157H245.282V77.674H277.713C283.966 77.674 289.277 78.7663 293.646 80.951C298.091 83.1357 301.405 86.149 303.59 89.991C305.775 93.7577 306.867 97.9763 306.867 102.647C306.867 107.92 305.36 112.629 302.347 116.772C299.409 120.915 295.04 123.853 289.239 125.586L307.545 157H285.736ZM264.605 113.382H276.583C280.124 113.382 282.76 112.516 284.493 110.783C286.301 109.05 287.205 106.602 287.205 103.438C287.205 100.425 286.301 98.0517 284.493 96.319C282.76 94.5863 280.124 93.72 276.583 93.72H264.605V113.382ZM376.062 77.674V93.155H355.044V157H335.721V93.155H314.703V77.674H376.062ZM423.275 157.791C415.817 157.791 408.962 156.058 402.709 152.593C396.532 149.128 391.598 144.306 387.906 138.129C384.29 131.876 382.482 124.87 382.482 117.111C382.482 109.352 384.29 102.383 387.906 96.206C391.598 90.0287 396.532 85.2073 402.709 81.742C408.962 78.2767 415.817 76.544 423.275 76.544C430.733 76.544 437.551 78.2767 443.728 81.742C449.981 85.2073 454.878 90.0287 458.418 96.206C462.034 102.383 463.842 109.352 463.842 117.111C463.842 124.87 462.034 131.876 458.418 138.129C454.802 144.306 449.906 149.128 443.728 152.593C437.551 156.058 430.733 157.791 423.275 157.791ZM423.275 140.163C429.603 140.163 434.651 138.054 438.417 133.835C442.259 129.616 444.18 124.042 444.18 117.111C444.18 110.105 442.259 104.53 438.417 100.387C434.651 96.1683 429.603 94.059 423.275 94.059C416.872 94.059 411.749 96.1307 407.907 100.274C404.141 104.417 402.257 110.03 402.257 117.111C402.257 124.117 404.141 129.729 407.907 133.948C411.749 138.091 416.872 140.163 423.275 140.163ZM545.556 157H526.233L493.915 108.071V157H474.592V77.674H493.915L526.233 126.829V77.674H545.556V157Z" fill="#3B3752"/>
<line x1="63" y1="178" x2="553" y2="178" stroke="white" stroke-width="2"/>
</svg>
