<svg width="788" height="309" viewBox="0 0 788 309" fill="none" xmlns="http://www.w3.org/2000/svg">
<path d="M92 309H788L696 0H0L92 309Z" fill="#FBC138"/>
<path d="M167.165 211.182C166.995 209.742 166.304 208.625 165.092 207.83C163.879 207.034 162.393 206.636 160.631 206.636C159.343 206.636 158.217 206.845 157.251 207.261C156.294 207.678 155.546 208.251 155.006 208.98C154.476 209.709 154.211 210.538 154.211 211.466C154.211 212.242 154.396 212.91 154.765 213.469C155.144 214.018 155.627 214.477 156.214 214.847C156.801 215.206 157.416 215.505 158.06 215.741C158.704 215.969 159.296 216.153 159.836 216.295L162.79 217.091C163.548 217.29 164.391 217.564 165.319 217.915C166.256 218.265 167.151 218.743 168.003 219.349C168.865 219.946 169.575 220.713 170.134 221.651C170.693 222.588 170.972 223.739 170.972 225.102C170.972 226.674 170.56 228.095 169.736 229.364C168.922 230.633 167.729 231.641 166.157 232.389C164.594 233.137 162.696 233.511 160.461 233.511C158.378 233.511 156.574 233.175 155.049 232.503C153.534 231.83 152.341 230.893 151.469 229.69C150.608 228.488 150.12 227.091 150.006 225.5H153.643C153.737 226.598 154.107 227.508 154.751 228.227C155.404 228.937 156.228 229.468 157.222 229.818C158.226 230.159 159.306 230.33 160.461 230.33C161.806 230.33 163.013 230.112 164.083 229.676C165.153 229.231 166.001 228.616 166.626 227.83C167.251 227.034 167.563 226.106 167.563 225.045C167.563 224.08 167.293 223.294 166.753 222.688C166.214 222.081 165.503 221.589 164.623 221.21C163.742 220.831 162.79 220.5 161.768 220.216L158.188 219.193C155.915 218.54 154.116 217.607 152.79 216.395C151.465 215.183 150.802 213.597 150.802 211.636C150.802 210.008 151.242 208.587 152.123 207.375C153.013 206.153 154.206 205.206 155.702 204.534C157.208 203.852 158.889 203.511 160.745 203.511C162.62 203.511 164.287 203.848 165.745 204.52C167.203 205.183 168.359 206.092 169.211 207.247C170.073 208.402 170.527 209.714 170.575 211.182H167.165ZM227.573 207.034V203.909H249.391V207.034H240.244V233H236.721V207.034H227.573ZM326.319 203.909H329.842V223.17C329.842 225.159 329.373 226.935 328.436 228.497C327.508 230.05 326.196 231.277 324.501 232.176C322.806 233.066 320.817 233.511 318.535 233.511C316.253 233.511 314.264 233.066 312.569 232.176C310.874 231.277 309.558 230.05 308.62 228.497C307.692 226.935 307.228 225.159 307.228 223.17V203.909H310.751V222.886C310.751 224.307 311.063 225.571 311.688 226.679C312.313 227.777 313.204 228.644 314.359 229.278C315.524 229.903 316.916 230.216 318.535 230.216C320.154 230.216 321.546 229.903 322.711 229.278C323.876 228.644 324.766 227.777 325.382 226.679C326.007 225.571 326.319 224.307 326.319 222.886V203.909ZM398.254 233H389.277V203.909H398.652C401.474 203.909 403.888 204.491 405.896 205.656C407.904 206.812 409.442 208.473 410.512 210.642C411.583 212.801 412.118 215.386 412.118 218.398C412.118 221.428 411.578 224.037 410.498 226.224C409.419 228.402 407.847 230.079 405.782 231.253C403.718 232.418 401.208 233 398.254 233ZM392.799 229.875H398.027C400.432 229.875 402.425 229.411 404.007 228.483C405.588 227.555 406.767 226.234 407.544 224.52C408.32 222.806 408.708 220.765 408.708 218.398C408.708 216.049 408.325 214.027 407.558 212.332C406.791 210.628 405.645 209.321 404.12 208.412C402.596 207.493 400.697 207.034 398.424 207.034H392.799V229.875ZM473.949 203.909V233H470.427V203.909H473.949ZM557.958 218.455C557.958 221.523 557.404 224.174 556.296 226.409C555.188 228.644 553.668 230.367 551.736 231.58C549.805 232.792 547.598 233.398 545.117 233.398C542.636 233.398 540.43 232.792 538.498 231.58C536.566 230.367 535.046 228.644 533.938 226.409C532.83 224.174 532.276 221.523 532.276 218.455C532.276 215.386 532.83 212.735 533.938 210.5C535.046 208.265 536.566 206.542 538.498 205.33C540.43 204.117 542.636 203.511 545.117 203.511C547.598 203.511 549.805 204.117 551.736 205.33C553.668 206.542 555.188 208.265 556.296 210.5C557.404 212.735 557.958 215.386 557.958 218.455ZM554.549 218.455C554.549 215.936 554.128 213.81 553.285 212.077C552.451 210.344 551.32 209.032 549.89 208.142C548.469 207.252 546.878 206.807 545.117 206.807C543.356 206.807 541.76 207.252 540.33 208.142C538.91 209.032 537.778 210.344 536.935 212.077C536.102 213.81 535.685 215.936 535.685 218.455C535.685 220.973 536.102 223.099 536.935 224.832C537.778 226.565 538.91 227.877 540.33 228.767C541.76 229.657 543.356 230.102 545.117 230.102C546.878 230.102 548.469 229.657 549.89 228.767C551.32 227.877 552.451 226.565 553.285 224.832C554.128 223.099 554.549 220.973 554.549 218.455ZM632.19 211.182C632.02 209.742 631.329 208.625 630.117 207.83C628.904 207.034 627.418 206.636 625.656 206.636C624.368 206.636 623.242 206.845 622.276 207.261C621.319 207.678 620.571 208.251 620.031 208.98C619.501 209.709 619.236 210.538 619.236 211.466C619.236 212.242 619.421 212.91 619.79 213.469C620.169 214.018 620.652 214.477 621.239 214.847C621.826 215.206 622.441 215.505 623.085 215.741C623.729 215.969 624.321 216.153 624.861 216.295L627.815 217.091C628.573 217.29 629.416 217.564 630.344 217.915C631.281 218.265 632.176 218.743 633.029 219.349C633.89 219.946 634.6 220.713 635.159 221.651C635.718 222.588 635.997 223.739 635.997 225.102C635.997 226.674 635.585 228.095 634.761 229.364C633.947 230.633 632.754 231.641 631.182 232.389C629.619 233.137 627.721 233.511 625.486 233.511C623.403 233.511 621.599 233.175 620.074 232.503C618.559 231.83 617.366 230.893 616.494 229.69C615.633 228.488 615.145 227.091 615.031 225.5H618.668C618.762 226.598 619.132 227.508 619.776 228.227C620.429 228.937 621.253 229.468 622.247 229.818C623.251 230.159 624.331 230.33 625.486 230.33C626.831 230.33 628.038 230.112 629.108 229.676C630.178 229.231 631.026 228.616 631.651 227.83C632.276 227.034 632.588 226.106 632.588 225.045C632.588 224.08 632.318 223.294 631.779 222.688C631.239 222.081 630.529 221.589 629.648 221.21C628.767 220.831 627.815 220.5 626.793 220.216L623.213 219.193C620.94 218.54 619.141 217.607 617.815 216.395C616.49 215.183 615.827 213.597 615.827 211.636C615.827 210.008 616.267 208.587 617.148 207.375C618.038 206.153 619.231 205.206 620.727 204.534C622.233 203.852 623.914 203.511 625.77 203.511C627.645 203.511 629.312 203.848 630.77 204.52C632.228 205.183 633.384 206.092 634.236 207.247C635.098 208.402 635.552 209.714 635.6 211.182H632.19Z" fill="#3B3752"/>
<path d="M151 78L187 138V158H151V78Z" fill="#3B3752"/>
<path d="M220 158L184 98V78H220V158Z" fill="#3B3752"/>
<path d="M275.925 158.791C268.467 158.791 261.612 157.058 255.359 153.593C249.182 150.128 244.247 145.306 240.556 139.129C236.94 132.876 235.132 125.87 235.132 118.111C235.132 110.352 236.94 103.383 240.556 97.206C244.247 91.0287 249.182 86.2073 255.359 82.742C261.612 79.2767 268.467 77.544 275.925 77.544C283.383 77.544 290.201 79.2767 296.378 82.742C302.631 86.2073 307.527 91.0287 311.068 97.206C314.684 103.383 316.492 110.352 316.492 118.111C316.492 125.87 314.684 132.876 311.068 139.129C307.452 145.306 302.555 150.128 296.378 153.593C290.201 157.058 283.383 158.791 275.925 158.791ZM275.925 141.163C282.253 141.163 287.3 139.054 291.067 134.835C294.909 130.616 296.83 125.042 296.83 118.111C296.83 111.105 294.909 105.53 291.067 101.387C287.3 97.1683 282.253 95.059 275.925 95.059C269.522 95.059 264.399 97.1307 260.557 101.274C256.79 105.417 254.907 111.03 254.907 118.111C254.907 125.117 256.79 130.729 260.557 134.948C264.399 139.091 269.522 141.163 275.925 141.163ZM372.216 158L355.718 128.055H351.085V158H331.762V78.674H364.193C370.446 78.674 375.757 79.7663 380.126 81.951C384.571 84.1357 387.885 87.149 390.07 90.991C392.255 94.7577 393.347 98.9763 393.347 103.647C393.347 108.92 391.84 113.629 388.827 117.772C385.889 121.915 381.52 124.853 375.719 126.586L394.025 158H372.216ZM351.085 114.382H363.063C366.604 114.382 369.24 113.516 370.973 111.783C372.781 110.05 373.685 107.602 373.685 104.438C373.685 101.425 372.781 99.0517 370.973 97.319C369.24 95.5863 366.604 94.72 363.063 94.72H351.085V114.382ZM467.062 78.674V94.155H446.044V158H426.721V94.155H405.703V78.674H467.062ZM518.795 158.791C511.337 158.791 504.482 157.058 498.229 153.593C492.052 150.128 487.118 145.306 483.426 139.129C479.81 132.876 478.002 125.87 478.002 118.111C478.002 110.352 479.81 103.383 483.426 97.206C487.118 91.0287 492.052 86.2073 498.229 82.742C504.482 79.2767 511.337 77.544 518.795 77.544C526.253 77.544 533.071 79.2767 539.248 82.742C545.501 86.2073 550.398 91.0287 553.938 97.206C557.554 103.383 559.362 110.352 559.362 118.111C559.362 125.87 557.554 132.876 553.938 139.129C550.322 145.306 545.426 150.128 539.248 153.593C533.071 157.058 526.253 158.791 518.795 158.791ZM518.795 141.163C525.123 141.163 530.171 139.054 533.937 134.835C537.779 130.616 539.7 125.042 539.7 118.111C539.7 111.105 537.779 105.53 533.937 101.387C530.171 97.1683 525.123 95.059 518.795 95.059C512.392 95.059 507.269 97.1307 503.427 101.274C499.661 105.417 497.777 111.03 497.777 118.111C497.777 125.117 499.661 130.729 503.427 134.948C507.269 139.091 512.392 141.163 518.795 141.163ZM645.596 158H626.273L593.955 109.071V158H574.632V78.674H593.955L626.273 127.829V78.674H645.596V158Z" fill="#3B3752"/>
<line x1="148" y1="180" x2="647" y2="180" stroke="white" stroke-width="4"/>
</svg>
