<svg width="729" height="427" viewBox="0 0 729 427" fill="none" xmlns="http://www.w3.org/2000/svg">
<path d="M48.2781 59.1279L174.641 41.3835L231.735 0L369.433 15.4247L349.282 59.1279L426.527 71.9818L476.904 15.4247L591.092 59.1279L729 41.3835L675.415 414.146H476.904L396.301 352.196L349.282 427L251.886 414.146L268.678 367.872L174.641 352.196L147.773 390.758L0 352.196L48.2781 59.1279Z" fill="#FBC138"/>
<path d="M137.165 266.182C136.995 264.742 136.304 263.625 135.092 262.83C133.879 262.034 132.393 261.636 130.631 261.636C129.343 261.636 128.217 261.845 127.251 262.261C126.294 262.678 125.546 263.251 125.006 263.98C124.476 264.709 124.211 265.538 124.211 266.466C124.211 267.242 124.396 267.91 124.765 268.469C125.144 269.018 125.627 269.477 126.214 269.847C126.801 270.206 127.416 270.505 128.06 270.741C128.704 270.969 129.296 271.153 129.836 271.295L132.79 272.091C133.548 272.29 134.391 272.564 135.319 272.915C136.256 273.265 137.151 273.743 138.003 274.349C138.865 274.946 139.575 275.713 140.134 276.651C140.693 277.588 140.972 278.739 140.972 280.102C140.972 281.674 140.56 283.095 139.736 284.364C138.922 285.633 137.729 286.641 136.157 287.389C134.594 288.137 132.696 288.511 130.461 288.511C128.378 288.511 126.574 288.175 125.049 287.503C123.534 286.83 122.341 285.893 121.469 284.69C120.608 283.488 120.12 282.091 120.006 280.5H123.643C123.737 281.598 124.107 282.508 124.751 283.227C125.404 283.937 126.228 284.468 127.222 284.818C128.226 285.159 129.306 285.33 130.461 285.33C131.806 285.33 133.013 285.112 134.083 284.676C135.153 284.231 136.001 283.616 136.626 282.83C137.251 282.034 137.563 281.106 137.563 280.045C137.563 279.08 137.293 278.294 136.753 277.688C136.214 277.081 135.503 276.589 134.623 276.21C133.742 275.831 132.79 275.5 131.768 275.216L128.188 274.193C125.915 273.54 124.116 272.607 122.79 271.395C121.465 270.183 120.802 268.597 120.802 266.636C120.802 265.008 121.242 263.587 122.123 262.375C123.013 261.153 124.206 260.206 125.702 259.534C127.208 258.852 128.889 258.511 130.745 258.511C132.62 258.511 134.287 258.848 135.745 259.52C137.203 260.183 138.359 261.092 139.211 262.247C140.073 263.402 140.527 264.714 140.574 266.182H137.165ZM197.573 262.034V258.909H219.391V262.034H210.244V288H206.721V262.034H197.573ZM296.319 258.909H299.842V278.17C299.842 280.159 299.373 281.935 298.436 283.497C297.508 285.05 296.196 286.277 294.501 287.176C292.806 288.066 290.817 288.511 288.535 288.511C286.253 288.511 284.264 288.066 282.569 287.176C280.874 286.277 279.558 285.05 278.62 283.497C277.692 281.935 277.228 280.159 277.228 278.17V258.909H280.751V277.886C280.751 279.307 281.063 280.571 281.688 281.679C282.313 282.777 283.204 283.644 284.359 284.278C285.524 284.903 286.916 285.216 288.535 285.216C290.154 285.216 291.546 284.903 292.711 284.278C293.876 283.644 294.766 282.777 295.382 281.679C296.007 280.571 296.319 279.307 296.319 277.886V258.909ZM368.254 288H359.277V258.909H368.652C371.474 258.909 373.888 259.491 375.896 260.656C377.904 261.812 379.442 263.473 380.512 265.642C381.583 267.801 382.118 270.386 382.118 273.398C382.118 276.428 381.578 279.037 380.498 281.224C379.419 283.402 377.847 285.079 375.782 286.253C373.718 287.418 371.208 288 368.254 288ZM362.799 284.875H368.027C370.432 284.875 372.425 284.411 374.007 283.483C375.588 282.555 376.767 281.234 377.544 279.52C378.32 277.806 378.708 275.765 378.708 273.398C378.708 271.049 378.325 269.027 377.558 267.332C376.791 265.628 375.645 264.321 374.12 263.412C372.596 262.493 370.697 262.034 368.424 262.034H362.799V284.875ZM443.949 258.909V288H440.427V258.909H443.949ZM527.958 273.455C527.958 276.523 527.404 279.174 526.296 281.409C525.188 283.644 523.668 285.367 521.736 286.58C519.805 287.792 517.598 288.398 515.117 288.398C512.636 288.398 510.43 287.792 508.498 286.58C506.566 285.367 505.046 283.644 503.938 281.409C502.83 279.174 502.276 276.523 502.276 273.455C502.276 270.386 502.83 267.735 503.938 265.5C505.046 263.265 506.566 261.542 508.498 260.33C510.43 259.117 512.636 258.511 515.117 258.511C517.598 258.511 519.805 259.117 521.736 260.33C523.668 261.542 525.188 263.265 526.296 265.5C527.404 267.735 527.958 270.386 527.958 273.455ZM524.549 273.455C524.549 270.936 524.128 268.81 523.285 267.077C522.451 265.344 521.32 264.032 519.89 263.142C518.469 262.252 516.878 261.807 515.117 261.807C513.356 261.807 511.76 262.252 510.33 263.142C508.91 264.032 507.778 265.344 506.935 267.077C506.102 268.81 505.685 270.936 505.685 273.455C505.685 275.973 506.102 278.099 506.935 279.832C507.778 281.565 508.91 282.877 510.33 283.767C511.76 284.657 513.356 285.102 515.117 285.102C516.878 285.102 518.469 284.657 519.89 283.767C521.32 282.877 522.451 281.565 523.285 279.832C524.128 278.099 524.549 275.973 524.549 273.455ZM602.19 266.182C602.02 264.742 601.329 263.625 600.117 262.83C598.904 262.034 597.418 261.636 595.656 261.636C594.368 261.636 593.242 261.845 592.276 262.261C591.319 262.678 590.571 263.251 590.031 263.98C589.501 264.709 589.236 265.538 589.236 266.466C589.236 267.242 589.421 267.91 589.79 268.469C590.169 269.018 590.652 269.477 591.239 269.847C591.826 270.206 592.441 270.505 593.085 270.741C593.729 270.969 594.321 271.153 594.861 271.295L597.815 272.091C598.573 272.29 599.416 272.564 600.344 272.915C601.281 273.265 602.176 273.743 603.028 274.349C603.89 274.946 604.6 275.713 605.159 276.651C605.718 277.588 605.997 278.739 605.997 280.102C605.997 281.674 605.585 283.095 604.761 284.364C603.947 285.633 602.754 286.641 601.182 287.389C599.619 288.137 597.721 288.511 595.486 288.511C593.403 288.511 591.599 288.175 590.074 287.503C588.559 286.83 587.366 285.893 586.494 284.69C585.633 283.488 585.145 282.091 585.031 280.5H588.668C588.762 281.598 589.132 282.508 589.776 283.227C590.429 283.937 591.253 284.468 592.247 284.818C593.251 285.159 594.331 285.33 595.486 285.33C596.831 285.33 598.038 285.112 599.108 284.676C600.178 284.231 601.026 283.616 601.651 282.83C602.276 282.034 602.588 281.106 602.588 280.045C602.588 279.08 602.318 278.294 601.778 277.688C601.239 277.081 600.528 276.589 599.648 276.21C598.767 275.831 597.815 275.5 596.793 275.216L593.213 274.193C590.94 273.54 589.141 272.607 587.815 271.395C586.49 270.183 585.827 268.597 585.827 266.636C585.827 265.008 586.267 263.587 587.148 262.375C588.038 261.153 589.231 260.206 590.727 259.534C592.233 258.852 593.914 258.511 595.77 258.511C597.645 258.511 599.312 258.848 600.77 259.52C602.228 260.183 603.384 261.092 604.236 262.247C605.098 263.402 605.552 264.714 605.6 266.182H602.19Z" fill="#3B3752"/>
<path d="M121 133L157 193V213H121V133Z" fill="#3B3752"/>
<path d="M190 213L154 153V133H190V213Z" fill="#3B3752"/>
<path d="M245.925 213.791C238.467 213.791 231.612 212.058 225.359 208.593C219.182 205.128 214.247 200.306 210.556 194.129C206.94 187.876 205.132 180.87 205.132 173.111C205.132 165.352 206.94 158.383 210.556 152.206C214.247 146.029 219.182 141.207 225.359 137.742C231.612 134.277 238.467 132.544 245.925 132.544C253.383 132.544 260.201 134.277 266.378 137.742C272.631 141.207 277.527 146.029 281.068 152.206C284.684 158.383 286.492 165.352 286.492 173.111C286.492 180.87 284.684 187.876 281.068 194.129C277.452 200.306 272.555 205.128 266.378 208.593C260.201 212.058 253.383 213.791 245.925 213.791ZM245.925 196.163C252.253 196.163 257.3 194.054 261.067 189.835C264.909 185.616 266.83 180.042 266.83 173.111C266.83 166.105 264.909 160.53 261.067 156.387C257.3 152.168 252.253 150.059 245.925 150.059C239.522 150.059 234.399 152.131 230.557 156.274C226.79 160.417 224.907 166.03 224.907 173.111C224.907 180.117 226.79 185.729 230.557 189.948C234.399 194.091 239.522 196.163 245.925 196.163ZM342.216 213L325.718 183.055H321.085V213H301.762V133.674H334.193C340.446 133.674 345.757 134.766 350.126 136.951C354.571 139.136 357.885 142.149 360.07 145.991C362.255 149.758 363.347 153.976 363.347 158.647C363.347 163.92 361.84 168.629 358.827 172.772C355.889 176.915 351.52 179.853 345.719 181.586L364.025 213H342.216ZM321.085 169.382H333.063C336.604 169.382 339.24 168.516 340.973 166.783C342.781 165.05 343.685 162.602 343.685 159.438C343.685 156.425 342.781 154.052 340.973 152.319C339.24 150.586 336.604 149.72 333.063 149.72H321.085V169.382ZM437.062 133.674V149.155H416.044V213H396.721V149.155H375.703V133.674H437.062ZM488.795 213.791C481.337 213.791 474.482 212.058 468.229 208.593C462.052 205.128 457.118 200.306 453.426 194.129C449.81 187.876 448.002 180.87 448.002 173.111C448.002 165.352 449.81 158.383 453.426 152.206C457.118 146.029 462.052 141.207 468.229 137.742C474.482 134.277 481.337 132.544 488.795 132.544C496.253 132.544 503.071 134.277 509.248 137.742C515.501 141.207 520.398 146.029 523.938 152.206C527.554 158.383 529.362 165.352 529.362 173.111C529.362 180.87 527.554 187.876 523.938 194.129C520.322 200.306 515.426 205.128 509.248 208.593C503.071 212.058 496.253 213.791 488.795 213.791ZM488.795 196.163C495.123 196.163 500.171 194.054 503.937 189.835C507.779 185.616 509.7 180.042 509.7 173.111C509.7 166.105 507.779 160.53 503.937 156.387C500.171 152.168 495.123 150.059 488.795 150.059C482.392 150.059 477.269 152.131 473.427 156.274C469.661 160.417 467.777 166.03 467.777 173.111C467.777 180.117 469.661 185.729 473.427 189.948C477.269 194.091 482.392 196.163 488.795 196.163ZM615.596 213H596.273L563.955 164.071V213H544.632V133.674H563.955L596.273 182.829V133.674H615.596V213Z" fill="#3B3752"/>
<line x1="118" y1="235" x2="617" y2="235" stroke="white" stroke-width="4"/>
</svg>
