<svg width="184" height="55" viewBox="0 0 184 55" fill="none" xmlns="http://www.w3.org/2000/svg">
<g clip-path="url(#clip0_3321_161)">
<path d="M9.31701 46.6095C9.2546 46.081 9.0015 45.6704 8.55772 45.3784C8.11391 45.0861 7.56961 44.9399 6.92471 44.9399C6.45322 44.9399 6.0406 45.0168 5.68699 45.1697C5.33679 45.3227 5.06289 45.5333 4.8653 45.8011C4.67112 46.069 4.57405 46.373 4.57405 46.7139C4.57405 46.9991 4.64164 47.2443 4.77686 47.4496C4.91554 47.6515 5.09237 47.8199 5.30735 47.9555C5.52229 48.0878 5.74763 48.1974 5.98341 48.2844C6.21916 48.368 6.43587 48.4358 6.6335 48.4878L7.71519 48.7802C7.99258 48.8532 8.30114 48.9538 8.6409 49.0827C8.98415 49.2115 9.31179 49.387 9.62384 49.6097C9.93934 49.8285 10.1994 50.1103 10.4039 50.4546C10.6085 50.799 10.7107 51.2216 10.7107 51.7227C10.7107 52.2998 10.5599 52.8215 10.2583 53.2879C9.96014 53.7539 9.52327 54.1242 8.94777 54.3988C8.37568 54.6738 7.68053 54.8113 6.8623 54.8113C6.09956 54.8113 5.43907 54.6878 4.88088 54.4406C4.32614 54.1939 3.88931 53.8496 3.57033 53.4077C3.25483 52.9658 3.07627 52.4531 3.03467 51.8688H4.36602C4.40068 52.2723 4.5359 52.606 4.77168 52.8705C5.01088 53.1312 5.31253 53.3259 5.67659 53.4548C6.0441 53.5798 6.43932 53.6424 6.8623 53.6424C7.35463 53.6424 7.79668 53.5625 8.18845 53.4024C8.58026 53.2389 8.89054 53.0129 9.11938 52.7243C9.34821 52.432 9.46263 52.0911 9.46263 51.7016C9.46263 51.3471 9.36379 51.0581 9.16616 50.8355C8.96857 50.6129 8.70853 50.432 8.38608 50.293C8.06367 50.154 7.71519 50.032 7.34077 49.928L6.0302 49.552C5.19811 49.3121 4.53939 48.9696 4.05397 48.5244C3.56859 48.0791 3.3259 47.4967 3.3259 46.7764C3.3259 46.1782 3.48712 45.6565 3.80955 45.2116C4.13545 44.7629 4.57232 44.4148 5.12012 44.1681C5.67137 43.9175 6.28679 43.7925 6.96631 43.7925C7.65282 43.7925 8.26302 43.9157 8.79692 44.1628C9.33086 44.4061 9.75384 44.7403 10.0659 45.1645C10.3814 45.5886 10.5478 46.0705 10.5651 46.6095H9.31701ZM31.4337 45.0861V43.9383H39.4219V45.0861H36.0726V54.6233H34.7828V45.0861H31.4337ZM67.5867 43.9383H68.8766V51.0129C68.8766 51.7434 68.705 52.3955 68.3617 52.9696C68.0219 53.5399 67.5416 53.9905 66.9209 54.3208C66.3006 54.6478 65.5725 54.8113 64.7369 54.8113C63.9011 54.8113 63.1733 54.6478 62.5526 54.3208C61.9319 53.9905 61.4501 53.5399 61.1069 52.9696C60.767 52.3955 60.5969 51.7434 60.5969 51.0129V43.9383H61.8868V50.9086C61.8868 51.4303 62.0013 51.8948 62.23 52.3017C62.4591 52.7051 62.7847 53.0234 63.2079 53.2562C63.6344 53.486 64.144 53.6009 64.7369 53.6009C65.3295 53.6009 65.8394 53.486 66.2656 53.2562C66.6922 53.0234 67.0182 52.7051 67.2435 52.3017C67.4722 51.8948 67.5867 51.4303 67.5867 50.9086V43.9383ZM93.9238 54.6233H90.637V43.9383H94.0692C95.1026 43.9383 95.9865 44.1522 96.7218 44.5802C97.4566 45.0044 98.0199 45.615 98.4119 46.4114C98.8036 47.2044 98.9996 48.1541 98.9996 49.2601C98.9996 50.3729 98.8017 51.3312 98.4067 52.1348C98.0113 52.9345 97.436 53.5505 96.6801 53.9818C95.9242 54.4094 95.0053 54.6233 93.9238 54.6233ZM91.9265 53.4755H93.8405C94.7211 53.4755 95.451 53.3052 96.0301 52.9643C96.6087 52.6234 97.0406 52.1382 97.3248 51.5087C97.6091 50.8792 97.7514 50.1295 97.7514 49.2601C97.7514 48.3974 97.611 47.6549 97.3301 47.0322C97.0492 46.4061 96.6298 45.9262 96.0714 45.5924C95.5134 45.2549 94.8183 45.0861 93.9862 45.0861H91.9265V53.4755ZM121.638 43.9383V54.6233H120.348V43.9383H121.638ZM152.395 49.2808C152.395 50.4079 152.192 51.3817 151.787 52.2026C151.381 53.0234 150.825 53.6563 150.117 54.1016C149.41 54.5469 148.602 54.7695 147.694 54.7695C146.785 54.7695 145.977 54.5469 145.27 54.1016C144.563 53.6563 144.006 53.0234 143.601 52.2026C143.195 51.3817 142.992 50.4079 142.992 49.2808C142.992 48.1541 143.195 47.1799 143.601 46.359C144.006 45.5385 144.563 44.9053 145.27 44.46C145.977 44.0147 146.785 43.7925 147.694 43.7925C148.602 43.7925 149.41 44.0147 150.117 44.46C150.825 44.9053 151.381 45.5385 151.787 46.359C152.192 47.1799 152.395 48.1541 152.395 49.2808ZM151.147 49.2808C151.147 48.3556 150.992 47.5747 150.684 46.9384C150.379 46.3018 149.965 45.8199 149.441 45.493C148.921 45.1664 148.339 45.0029 147.694 45.0029C147.049 45.0029 146.464 45.1664 145.941 45.493C145.421 45.8199 145.007 46.3018 144.698 46.9384C144.393 47.5747 144.24 48.3556 144.24 49.2808C144.24 50.206 144.393 50.9869 144.698 51.6236C145.007 52.2598 145.421 52.7417 145.941 53.0686C146.464 53.3956 147.049 53.5591 147.694 53.5591C148.339 53.5591 148.921 53.3956 149.441 53.0686C149.965 52.7417 150.379 52.2598 150.684 51.6236C150.992 50.9869 151.147 50.206 151.147 49.2808ZM179.573 46.6095C179.511 46.081 179.257 45.6704 178.814 45.3784C178.37 45.0861 177.826 44.9399 177.181 44.9399C176.709 44.9399 176.297 45.0168 175.943 45.1697C175.593 45.3227 175.319 45.5333 175.122 45.8011C174.927 46.069 174.83 46.373 174.83 46.7139C174.83 46.9991 174.898 47.2443 175.033 47.4496C175.171 47.6515 175.348 47.8199 175.564 47.9555C175.778 48.0878 176.004 48.1974 176.239 48.2844C176.475 48.368 176.692 48.4358 176.889 48.4878L177.971 48.7802C178.249 48.8532 178.557 48.9538 178.897 49.0827C179.24 49.2115 179.568 49.387 179.88 49.6097C180.195 49.8285 180.455 50.1103 180.66 50.4546C180.865 50.799 180.967 51.2216 180.967 51.7227C180.967 52.2998 180.816 52.8215 180.514 53.2879C180.216 53.7539 179.779 54.1242 179.204 54.3988C178.632 54.6738 177.937 54.8113 177.119 54.8113C176.355 54.8113 175.695 54.6878 175.137 54.4406C174.582 54.1939 174.145 53.8496 173.826 53.4077C173.511 52.9658 173.332 52.4531 173.291 51.8688H174.622C174.657 52.2723 174.792 52.606 175.028 52.8705C175.267 53.1312 175.569 53.3259 175.933 53.4548C176.3 53.5798 176.695 53.6424 177.119 53.6424C177.611 53.6424 178.053 53.5625 178.444 53.4024C178.836 53.2389 179.147 53.0129 179.375 52.7243C179.604 52.432 179.719 52.0911 179.719 51.7016C179.719 51.3471 179.62 51.0581 179.422 50.8355C179.225 50.6129 178.965 50.432 178.642 50.293C178.32 50.154 177.971 50.032 177.597 49.928L176.286 49.552C175.454 49.3121 174.796 48.9696 174.31 48.5244C173.825 48.0791 173.582 47.4967 173.582 46.7764C173.582 46.1782 173.743 45.6565 174.066 45.2116C174.392 44.7629 174.828 44.4148 175.376 44.1681C175.927 43.9175 176.543 43.7925 177.223 43.7925C177.909 43.7925 178.519 43.9157 179.053 44.1628C179.587 44.4061 180.01 44.7403 180.322 45.1645C180.637 45.5886 180.804 46.0705 180.821 46.6095H179.573Z" fill="#3B3752"/>
<path d="M0 30.5139V0.376953L15.0204 22.9797V0.376953H30.0408V30.5139L15.0204 7.9112V30.5139H0Z" fill="#3B3752"/>
<path d="M49.1786 30.8118C46.378 30.8118 43.8039 30.1591 41.4558 28.8537C39.1363 27.5483 37.2832 25.732 35.8971 23.4049C34.5393 21.0494 33.8604 18.4102 33.8604 15.4872C33.8604 12.5641 34.5393 9.93906 35.8971 7.612C37.2832 5.28493 39.1363 3.46866 41.4558 2.16323C43.8039 0.857797 46.378 0.205078 49.1786 0.205078C51.9791 0.205078 54.5394 0.857797 56.8589 2.16323C59.207 3.46866 61.0455 5.28493 62.3751 7.612C63.733 9.93906 64.4119 12.5641 64.4119 15.4872C64.4119 18.4102 63.733 21.0494 62.3751 23.4049C61.0173 25.732 59.1784 27.5483 56.8589 28.8537C54.5394 30.1591 51.9791 30.8118 49.1786 30.8118ZM49.1786 24.1711C51.5548 24.1711 53.45 23.3765 54.8646 21.7873C56.3073 20.1981 57.0286 18.098 57.0286 15.4872C57.0286 12.8479 56.3073 10.7479 54.8646 9.18703C53.45 7.59779 51.5548 6.80319 49.1786 6.80319C46.7742 6.80319 44.8504 7.58363 43.4077 9.14446C41.9932 10.7053 41.2861 12.8196 41.2861 15.4872C41.2861 18.1264 41.9932 20.2406 43.4077 21.8299C44.8504 23.3907 46.7742 24.1711 49.1786 24.1711ZM83.6395 30.5138L77.4444 19.2332H75.7046V30.5138H68.4486V0.630763H80.6268C82.9749 0.630763 84.9692 1.04226 86.6098 1.86525C88.279 2.68824 89.5234 3.8234 90.3439 5.27073C91.1644 6.68969 91.5744 8.27889 91.5744 10.0384C91.5744 12.0249 91.0085 13.7986 89.8771 15.3595C88.7739 16.9203 87.1333 18.0271 84.9549 18.6798L91.829 30.5138H83.6395ZM75.7046 14.0824H80.2025C81.5322 14.0824 82.522 13.7561 83.1728 13.1033C83.8517 12.4506 84.1912 11.5283 84.1912 10.3364C84.1912 9.20123 83.8517 8.30729 83.1728 7.65456C82.522 7.00184 81.5322 6.67549 80.2025 6.67549H75.7046V14.0824ZM117.558 0.630763V6.46265H109.665V30.5138H102.409V6.46265H94.5169V0.630763H117.558ZM135.287 30.8118C132.486 30.8118 129.912 30.1591 127.564 28.8537C125.245 27.5483 123.392 25.732 122.005 23.4049C120.648 21.0494 119.969 18.4102 119.969 15.4872C119.969 12.5641 120.648 9.93906 122.005 7.612C123.392 5.28493 125.245 3.46866 127.564 2.16323C129.912 0.857797 132.486 0.205078 135.287 0.205078C138.087 0.205078 140.648 0.857797 142.967 2.16323C145.315 3.46866 147.154 5.28493 148.483 7.612C149.841 9.93906 150.52 12.5641 150.52 15.4872C150.52 18.4102 149.841 21.0494 148.483 23.4049C147.126 25.732 145.287 27.5483 142.967 28.8537C140.648 30.1591 138.087 30.8118 135.287 30.8118ZM135.287 24.1711C137.663 24.1711 139.559 23.3765 140.973 21.7873C142.416 20.1981 143.137 18.098 143.137 15.4872C143.137 12.8479 142.416 10.7479 140.973 9.18703C139.559 7.59779 137.663 6.80319 135.287 6.80319C132.882 6.80319 130.959 7.58363 129.516 9.14446C128.102 10.7053 127.394 12.8196 127.394 15.4872C127.394 18.1264 128.102 20.2406 129.516 21.8299C130.959 23.3907 132.882 24.1711 135.287 24.1711ZM181.205 30.5138H173.949L161.813 12.0817V30.5138H154.557V0.630763H161.813L173.949 19.1481V0.630763H181.205V30.5138Z" fill="#3B3752"/>
<path d="M0 37.2944H184" stroke="#C0C0C0" stroke-width="2"/>
</g>
<defs>
<clipPath id="clip0_3321_161">
<rect width="184" height="55" fill="white"/>
</clipPath>
</defs>
</svg>
